<svg width="20" height="20" viewBox="0 0 20 20" fill="none" xmlns="http://www.w3.org/2000/svg">
<g opacity="0.2">
<rect opacity="0.01" width="20" height="20" fill="black"/>
<path fill-rule="evenodd" clip-rule="evenodd" d="M1.66666 10C1.66666 5.39763 5.39762 1.66667 10 1.66667C12.2101 1.66667 14.3298 2.54465 15.8926 4.10745C17.4554 5.67025 18.3333 7.78987 18.3333 10C18.3333 14.6024 14.6024 18.3333 10 18.3333C5.39762 18.3333 1.66666 14.6024 1.66666 10ZM3.33333 10C3.33333 13.6819 6.3181 16.6667 10 16.6667C11.7681 16.6667 13.4638 15.9643 14.714 14.7141C15.9643 13.4638 16.6667 11.7681 16.6667 10C16.6667 6.31811 13.6819 3.33334 10 3.33334C6.3181 3.33334 3.33333 6.31811 3.33333 10Z" fill="black"/>
<path d="M10 14.1667C10.4602 14.1667 10.8333 13.7936 10.8333 13.3333C10.8333 12.8731 10.4602 12.5 10 12.5C9.53976 12.5 9.16666 12.8731 9.16666 13.3333C9.16666 13.7936 9.53976 14.1667 10 14.1667Z" fill="black"/>
<path d="M10 5.83333C9.53976 5.83333 9.16666 6.20642 9.16666 6.66666V10.8333C9.16666 11.2936 9.53976 11.6667 10 11.6667C10.4602 11.6667 10.8333 11.2936 10.8333 10.8333V6.66666C10.8333 6.20642 10.4602 5.83333 10 5.83333Z" fill="black"/>
</g>
</svg>
