<svg width="20" height="20" viewBox="0 0 20 20" fill="none" xmlns="http://www.w3.org/2000/svg">
<g opacity="0.2">
<rect opacity="0.01" width="20" height="20" fill="black"/>
<path fill-rule="evenodd" clip-rule="evenodd" d="M17.1 12.675L15.6 11.1667V7.45C15.6413 4.59612 13.5712 2.14907 10.75 1.71666C9.14814 1.50571 7.53301 1.99479 6.31727 3.05896C5.10154 4.12313 4.40295 5.6593 4.4 7.275V11.1667L2.9 12.675C2.51481 13.0666 2.40151 13.6508 2.6124 14.158C2.82329 14.6652 3.31737 14.9969 3.86667 15H6.66667V15.2833C6.74771 17.0447 8.23835 18.4087 10 18.3333C11.7617 18.4087 13.2523 17.0447 13.3333 15.2833V15H16.1333C16.6826 14.9969 17.1767 14.6652 17.3876 14.158C17.5985 13.6508 17.4852 13.0666 17.1 12.675ZM11.6667 15.2833C11.5707 16.1161 10.8362 16.7257 10 16.6667C9.16383 16.7257 8.42935 16.1161 8.33334 15.2833V15H11.6667V15.2833ZM5.575 12.35L4.59167 13.3333H15.4083L14.4167 12.35C14.1047 12.0355 13.9308 11.6097 13.9333 11.1667V7.41666C13.976 5.39841 12.5259 3.65687 10.5333 3.33333C9.40174 3.18564 8.26235 3.54208 7.41667 4.30833C6.55974 5.05614 6.06759 6.13765 6.06667 7.275V11.1667C6.06702 11.6109 5.89004 12.0368 5.575 12.35Z" fill="black"/>
</g>
</svg>
