<svg width="67" height="30" viewBox="0 0 67 30" fill="none" xmlns="http://www.w3.org/2000/svg">
<path fill-rule="evenodd" clip-rule="evenodd" d="M46.4476 22.4797C45.5776 22.8349 44.8065 23.6605 43.977 24.5487C43.2685 25.3073 42.5173 26.1116 41.6255 26.7074C41.5054 26.7876 41.3854 26.8277 41.3053 26.8277C41.1453 26.8277 40.9452 26.6673 40.9452 25.9455C40.9452 23.9834 41.4437 22.8204 41.9882 21.55C42.1337 21.2107 42.2824 20.8637 42.4258 20.4917C44.1944 15.8957 46.9061 11.7948 49.6693 7.61576C50.5949 6.21595 51.5263 4.80737 52.43 3.36851C52.7101 2.92739 52.8702 2.44618 52.8702 1.92486C52.8702 1.48375 52.7101 1.12284 52.51 0.681722C52.35 0.32081 51.6297 0 50.8293 0C50.6184 0 50.4167 0.0092059 50.2066 0.018796C49.9781 0.0292216 49.7397 0.0401013 49.4688 0.0401013C48.035 0.0401013 47.4617 1.6481 47.0751 2.73225L47.0751 2.73229C46.9546 3.07029 46.8522 3.35736 46.7476 3.52891C43.7464 8.62177 40.3049 14.9177 38.5442 19.3689C38.4597 19.5872 38.3738 19.8054 38.2877 20.024L38.2874 20.0249C37.9801 20.8052 37.6715 21.5889 37.424 22.3887C36.4451 22.6728 35.6043 23.573 34.6931 24.5487C33.9846 25.3073 33.2334 26.1116 32.3416 26.7074C32.2215 26.7876 32.1015 26.8277 32.0214 26.8277C31.8614 26.8277 31.6613 26.6673 31.6613 25.9455C31.6613 23.9833 32.1597 22.8204 32.7043 21.55L32.7043 21.55C32.8498 21.2107 32.9985 20.8637 33.1419 20.4917C34.9105 15.8957 37.6221 11.7948 40.3854 7.61577C41.311 6.21595 42.2424 4.80738 43.1461 3.36851C43.4262 2.92739 43.5863 2.44618 43.5863 1.92486C43.5863 1.48375 43.4262 1.12284 43.2261 0.681722C43.0661 0.32081 42.3458 0 41.5454 0C41.3345 0 41.1328 0.0092059 40.9227 0.018796C40.6942 0.0292216 40.4558 0.0401013 40.1849 0.0401013C38.7511 0.0401013 38.1778 1.6481 37.7912 2.73225L37.7912 2.73229C37.6707 3.07029 37.5683 3.35736 37.4637 3.52891C34.4624 8.62177 31.021 14.9177 29.2603 19.3689C29.1758 19.5871 29.0899 19.8053 29.0039 20.0238L29.0035 20.0247C28.9471 20.1681 28.8905 20.3117 28.8344 20.4554C28.7905 20.4789 28.7458 20.5043 28.7 20.5318C27.7363 21.1 26.8439 21.8738 25.9091 22.6843C24.8644 23.5902 23.7668 24.542 22.4574 25.3039C22.3916 25.3424 22.307 25.3951 22.207 25.4575C21.5767 25.8507 20.3321 26.6272 19.2961 26.6272C19.0159 26.6272 18.7758 26.547 18.5357 26.4267C18.1756 26.2663 17.8154 25.5044 17.8154 25.2638C17.8154 25.0633 17.8555 25.0232 18.2556 24.7826C21.7771 22.6572 24.6583 19.6095 27.1394 16.5618C28.0598 15.439 29.2603 13.2334 29.2603 11.6294C29.2603 10.5867 28.9001 9.3837 27.6596 8.94258C26.7792 8.62177 25.7788 8.46137 24.9785 8.46137C22.8576 8.46137 21.2969 9.4238 20.4165 10.3461C19.5203 11.305 18.6533 12.2895 17.8479 13.3087C17.0063 12.5806 15.8193 12.271 14.6941 12.271C13.3736 12.271 10.8925 13.9151 9.61199 14.8776C9.4119 15.038 9.29185 15.1182 9.21182 15.1182C9.1718 15.1182 9.13179 15.0781 9.13179 14.9979C9.13179 14.9899 9.13499 14.969 9.14011 14.9356C9.1606 14.8022 9.21182 14.4685 9.21182 13.9552C9.21182 13.3938 9.09177 12.672 8.57155 11.7898C8.4515 11.5893 7.7312 11.1482 6.85083 11.1482C5.77037 11.1482 4.76995 11.6695 4.76995 12.2309C4.76995 12.4367 4.86479 12.5791 4.95714 12.7178C5.04474 12.8493 5.1301 12.9775 5.1301 13.1532C5.1301 13.3537 4.97003 14.2761 4.72993 15.1583C4.04965 17.7248 3.20929 20.2511 2.32892 22.7775C2.13355 23.3486 1.75269 23.8931 1.36963 24.4407C0.811182 25.2391 0.248047 26.0442 0.248047 26.9481C0.248047 27.4293 0.568182 28.0709 1.00837 28.5521C1.72867 29.3541 2.16886 29.6348 2.80912 29.6348C3.08924 29.6348 3.40938 29.5546 3.6895 29.314C4.28975 28.7927 4.60988 28.2714 4.76995 27.5496C5.81039 22.8176 8.81165 19.6095 12.133 17.4842C13.2535 16.7623 14.7742 16.0004 14.9742 16.0004C15.1696 16.0004 15.4697 16.0864 15.7771 16.1744L15.8236 16.1877C14.8952 17.7053 14.1429 19.3057 13.6537 21.0131C13.4936 21.5745 13.4136 22.0958 13.4136 22.6572C13.4136 23.5795 13.6137 24.542 13.9338 25.4643C14.374 26.7475 15.0943 27.8704 16.0947 28.3917C17.9355 29.3541 19.256 29.8754 20.4566 29.8754C21.1368 29.8754 21.6571 29.7551 22.2173 29.4343C24.8475 27.9431 26.46 26.8117 27.6245 25.8068C27.6564 26.8257 27.8568 27.3902 28.58 28.1511C29.3003 28.913 30.4207 29.5947 31.9014 29.9155C32.1415 29.9556 32.3816 29.9957 32.6217 29.9957C34.3157 29.9957 35.946 28.6159 37.2031 27.2481C37.3487 27.5466 37.5602 27.8315 37.8639 28.1511C38.5842 28.913 39.7047 29.5947 41.1853 29.9155C41.4254 29.9556 41.6655 29.9957 41.9056 29.9957C43.89 29.9957 45.7869 28.1024 47.099 26.5528C47.5363 27.4592 48.7583 28.3554 50.2291 29.0734C50.6293 29.2739 51.1095 29.3942 51.5496 29.3942C53.2215 29.3942 54.44 28.0693 55.3887 27.0378L55.4713 26.9481C57.9523 24.2212 59.3129 20.8527 60.3533 16.6019C60.4334 16.2811 60.5534 16.1608 60.7135 16.1608C61.1137 16.1608 61.6339 16.1608 62.1941 16.0806C62.7578 15.9969 63.2561 15.8587 63.7459 15.7228C64.1949 15.5982 64.6368 15.4756 65.1153 15.3989C65.4468 15.3324 65.5709 15.2415 65.7098 15.1397C65.8225 15.0571 65.945 14.9673 66.1958 14.8776C66.596 14.7172 66.9161 14.5568 66.9161 14.1557C66.9161 13.474 65.6756 12.7522 63.7948 12.7522C62.8902 12.7522 62.2096 12.7971 61.6801 12.8321C61.343 12.8543 61.0671 12.8725 60.8335 12.8725C59.9132 12.8725 59.6731 12.5918 59.0728 11.0278C58.9528 10.707 58.8327 10.5466 58.4726 10.2258C57.6322 9.504 56.5918 9.26339 55.7514 9.26339C53.7506 9.26339 52.0298 11.3086 50.8293 13.0329C50.7014 13.216 50.5485 13.3824 50.3934 13.5511C50.2088 13.752 50.0212 13.9561 49.8689 14.1958C48.2205 16.6737 46.6422 19.4679 46.4476 22.4797ZM24.9384 12.0705C24.9384 12.4314 24.8184 12.672 24.3382 13.4339C24.1285 13.7667 24.0485 13.9541 23.975 14.1265C23.8801 14.3488 23.7959 14.5461 23.4578 14.9979C22.2973 16.5618 20.8567 18.1258 18.9759 19.8501C18.4557 20.3313 18.3757 20.3313 18.2956 20.3313C18.2556 20.3313 18.1756 20.2912 18.1756 20.211C18.1756 20.0907 18.2156 19.9303 18.6158 19.0882C19.8563 16.4816 21.3769 14.7573 23.0576 13.073C23.978 12.1507 24.5383 11.8299 24.7384 11.8299C24.8584 11.8299 24.9384 11.87 24.9384 12.0705ZM55.8314 13.2334C55.7914 13.1532 55.7514 13.1131 55.7114 13.1131C55.5913 13.1131 55.3512 13.1532 55.0311 13.5943C53.0703 16.1608 50.109 20.8126 50.109 23.9405C50.109 24.141 50.149 24.6623 50.3091 25.1034C50.4292 25.4242 50.7493 25.9455 50.9494 25.9455C51.1895 25.9455 51.4696 25.8252 51.9498 25.1034C52.0028 25.0238 52.0558 24.9442 52.1088 24.8646C54.2173 21.6975 56.3116 18.5517 56.3116 14.7573C56.3116 14.3162 56.3116 13.7547 56.1516 13.6344C55.9515 13.474 55.8715 13.3537 55.8314 13.2334Z" fill="#251C15"/>
</svg>
