<svg width="20" height="20" viewBox="0 0 20 20" fill="none" xmlns="http://www.w3.org/2000/svg">
<g opacity="0.2">
<rect opacity="0.01" width="20" height="20" fill="black"/>
<path fill-rule="evenodd" clip-rule="evenodd" d="M1.66667 10C1.66667 5.39763 5.39763 1.66667 10 1.66667C12.2101 1.66667 14.3298 2.54465 15.8926 4.10745C17.4554 5.67025 18.3333 7.78987 18.3333 10C18.3333 14.6024 14.6024 18.3333 10 18.3333C5.39763 18.3333 1.66667 14.6024 1.66667 10ZM3.33333 10C3.33333 13.6819 6.3181 16.6667 10 16.6667C11.7681 16.6667 13.4638 15.9643 14.714 14.7141C15.9643 13.4638 16.6667 11.7681 16.6667 10C16.6667 6.31811 13.6819 3.33334 10 3.33334C6.3181 3.33334 3.33333 6.31811 3.33333 10Z" fill="black"/>
<path d="M12.5 9.16667H10.8333V7.50001C10.8333 7.03977 10.4602 6.66667 10 6.66667C9.53976 6.66667 9.16667 7.03977 9.16667 7.50001V9.16667H7.5C7.03976 9.16667 6.66667 9.53977 6.66667 10C6.66667 10.4602 7.03976 10.8333 7.5 10.8333H9.16667V12.5C9.16667 12.9602 9.53976 13.3333 10 13.3333C10.4602 13.3333 10.8333 12.9602 10.8333 12.5V10.8333H12.5C12.9602 10.8333 13.3333 10.4602 13.3333 10C13.3333 9.53977 12.9602 9.16667 12.5 9.16667Z" fill="black"/>
</g>
</svg>
